<svg width="16" height="17" viewBox="0 0 16 17" fill="none" xmlns="http://www.w3.org/2000/svg">
<path d="M4.31675 4.905L3.94232 5.23618L4.27342 5.61069L9.79529 11.8566L10.122 12.2261L10.4959 11.9045L11.2097 11.2907L11.5947 10.9595L11.2576 10.5797L5.71482 4.33479L5.38348 3.96149L5.00961 4.29218L4.31675 4.905Z" stroke="white"/>
<circle cx="12.358" cy="13.2879" r="2.27043" transform="rotate(-66.0244 12.358 13.2879)" stroke="white"/>
<path d="M1.94746 1.0382C1.77003 0.972039 1.57045 1.01179 1.4319 1.14088C1.29336 1.26997 1.23963 1.46625 1.29311 1.6479L2.44111 5.54713C2.48992 5.71292 2.62088 5.84174 2.78744 5.88782C2.95401 5.9339 3.13256 5.89069 3.25963 5.77356L5.94072 3.30223C6.0685 3.18445 6.12596 3.00877 6.09248 2.83825C6.05899 2.66773 5.93937 2.52682 5.77655 2.4661L1.94746 1.0382Z" stroke="white" stroke-linejoin="round"/>
</svg>
