<svg width="15" height="17" viewBox="0 0 15 17" fill="none" xmlns="http://www.w3.org/2000/svg">
<path d="M4.09039 4.87006L3.71596 5.20124L4.04705 5.57575L9.56892 11.8217L9.8956 12.1912L10.2695 11.8696L10.9833 11.2557L11.3684 10.9246L11.0312 10.5447L5.48845 4.29985L5.15712 3.92654L4.78324 4.25723L4.09039 4.87006Z" stroke="black"/>
<circle cx="12.1316" cy="13.2529" r="2.27043" transform="rotate(-66.0244 12.1316 13.2529)" stroke="black"/>
<path d="M1.72109 1.00326C1.54367 0.937097 1.34408 0.976844 1.20554 1.10593C1.067 1.23503 1.01327 1.43131 1.06675 1.61296L2.21474 5.51219C2.26355 5.67798 2.39452 5.8068 2.56108 5.85288C2.72765 5.89895 2.90619 5.85575 3.03327 5.73862L5.71436 3.26729C5.84214 3.14951 5.8996 2.97383 5.86611 2.80331C5.83263 2.63279 5.71301 2.49188 5.55018 2.43116L1.72109 1.00326Z" stroke="black" stroke-linejoin="round"/>
</svg>
