<svg width="51" height="50" viewBox="0 0 51 50" fill="none" xmlns="http://www.w3.org/2000/svg">
<path d="M37.8743 37.3706C40.3619 34.883 42.0678 31.7256 42.7764 28.2976C43.485 24.8696 43.1644 21.3249 41.8552 18.1119C40.546 14.8988 38.307 12.1617 35.4213 10.2466C32.5357 8.33149 29.1329 7.32445 25.6434 7.35281C22.1538 7.38117 18.7343 8.44366 15.8171 10.4059C12.8999 12.3682 10.6161 15.1421 9.25449 18.3768C7.8929 21.6116 7.51467 25.1619 8.16763 28.5789C8.82059 31.9958 10.4754 35.1259 12.9228 37.5733L16.0671 34.4291C14.2316 32.5935 12.9904 30.2459 12.5007 27.6832C12.011 25.1205 12.2947 22.4577 13.3159 20.0317C14.3371 17.6056 16.0499 15.5252 18.2378 14.0535C20.4257 12.5818 22.9904 11.7849 25.6075 11.7637C28.2247 11.7424 30.7767 12.4977 32.941 13.934C35.1053 15.3703 36.7845 17.4232 37.7664 19.833C38.7483 22.2428 38.9887 24.9013 38.4573 27.4723C37.9258 30.0433 36.6464 32.4113 34.7808 34.277L37.8743 37.3706Z" fill="white"/>
<path d="M19.351 42.0414C19.5216 42.8953 18.595 43.5442 17.8509 43.0918L8.0868 37.1556C7.47012 36.7807 7.44153 35.8959 8.03271 35.4819L15.5581 30.2126C16.1493 29.7986 16.9709 30.1281 17.1123 30.8358L19.351 42.0414Z" fill="white"/>
<path d="M33.2394 43.1063C32.4953 43.5587 31.5687 42.9098 31.7393 42.0559L33.9779 30.8503C34.1193 30.1426 34.941 29.8131 35.5321 30.2271L43.0576 35.4964C43.6487 35.9104 43.6201 36.7952 43.0035 37.1701L33.2394 43.1063Z" fill="white"/>
</svg>