<svg width="26" height="26" viewBox="0 0 26 26" fill="none" xmlns="http://www.w3.org/2000/svg">
<g clip-path="url(#clip0_22_304)">
<path fill-rule="evenodd" clip-rule="evenodd" d="M13.2611 0.5C6.4149 0.5 0.916138 6.04331 0.916138 12.9481C0.916138 18.0732 3.92489 22.3617 8.28239 24.3495C8.28239 22.0151 8.26613 22.316 10.0449 14.7255C9.06738 12.7528 9.82739 9.49597 12.0161 9.49597C15.0536 9.49597 12.9899 13.9994 12.6386 15.7716C12.3274 17.1317 13.3649 18.1782 14.6099 18.1782C16.9961 18.1782 18.5511 15.144 18.5511 11.5883C18.5511 8.86817 16.6849 6.88062 13.4686 6.88062C7.7499 6.88062 6.29989 13.2494 8.28239 15.2485C8.78114 16.0035 8.28239 16.0389 8.28239 17.0271C7.93614 18.072 5.16989 16.5532 5.16989 12.6344C5.16989 9.07737 8.07489 4.89392 13.9874 4.89392C18.6549 4.89392 21.7674 8.34532 21.7674 12.007C21.7674 16.9228 19.0699 20.4799 15.1286 20.4799C13.7799 20.4799 12.5349 19.747 12.1199 18.91C11.3661 21.8419 11.2136 23.3282 10.0449 24.9769C11.1861 25.2908 12.3274 25.5 13.5724 25.5C20.4186 25.5 25.9161 19.9566 25.9161 13.0531C25.6061 6.04368 20.1074 0.5 13.2611 0.5Z" fill="#FFFAF6"/>
</g>
<defs>
<clipPath id="clip0_22_304">
<rect width="25" height="25" fill="white" transform="translate(0.916138 0.5)"/>
</clipPath>
</defs>
</svg>
