<svg width="26" height="26" viewBox="0 0 26 26" fill="none" xmlns="http://www.w3.org/2000/svg">
<g clip-path="url(#clip0_22_299)">
<path fill-rule="evenodd" clip-rule="evenodd" d="M10.9017 16.2326V9.21787C13.3919 10.3897 15.3206 11.5216 17.6017 12.742C15.7203 13.7854 13.3919 14.9561 10.9017 16.2326ZM24.7799 5.7291C24.3503 5.16315 23.6182 4.72261 22.8388 4.57676C20.5477 4.1417 6.25487 4.14046 3.96508 4.57676C3.34002 4.69394 2.78343 4.97717 2.3053 5.41721C0.290684 7.28709 0.92197 17.3146 1.40757 18.9389C1.61177 19.642 1.87575 20.1491 2.2082 20.4819C2.63652 20.9219 3.22297 21.2249 3.89659 21.3608C5.78296 21.751 15.5012 21.9692 22.7989 21.4194C23.4713 21.3022 24.0664 20.9895 24.5358 20.5307C26.3985 18.6683 26.2716 8.07767 24.7799 5.7291Z" fill="#FFFAF6"/>
</g>
<defs>
<clipPath id="clip0_22_299">
<rect width="25" height="25" fill="white" transform="translate(0.916138 0.5)"/>
</clipPath>
</defs>
</svg>
