<svg width="26" height="26" viewBox="0 0 26 26" fill="none" xmlns="http://www.w3.org/2000/svg">
<g clip-path="url(#clip0_22_314)">
<path fill-rule="evenodd" clip-rule="evenodd" d="M13.4161 0.5C20.3199 0.5 25.9161 6.23741 25.9161 13.3162C25.9161 18.9774 22.3386 23.7799 17.3749 25.4762C16.7411 25.6024 16.5161 25.2022 16.5161 24.861C16.5161 24.4385 16.5311 23.0585 16.5311 21.3435C16.5311 20.1485 16.1311 19.3686 15.6824 18.9711C18.4661 18.6536 21.3911 17.5697 21.3911 12.6472C21.3911 11.2472 20.9061 10.1048 20.1036 9.20728C20.2336 8.88353 20.6624 7.57994 19.9811 5.81494C19.9811 5.81494 18.9336 5.47153 16.5474 7.12903C15.5486 6.84528 14.4786 6.70251 13.4161 6.69751C12.3536 6.70251 11.2849 6.84528 10.2874 7.12903C7.89864 5.47153 6.84864 5.81494 6.84864 5.81494C6.16989 7.57994 6.59864 8.88353 6.72739 9.20728C5.92864 10.1048 5.43989 11.2472 5.43989 12.6472C5.43989 17.5572 8.35864 18.6577 11.1349 18.9814C10.7774 19.3014 10.4536 19.866 10.3411 20.6947C9.62864 21.0222 7.81863 21.589 6.70363 19.6302C6.70363 19.6302 6.04239 18.3988 4.78739 18.3088C4.78739 18.3088 3.56864 18.2926 4.70239 19.0876C4.70239 19.0876 5.52114 19.4814 6.08989 20.9626C6.08989 20.9626 6.82364 23.2501 10.3011 22.4751C10.3074 23.5463 10.3186 24.556 10.3186 24.861C10.3186 25.1997 10.0886 25.5962 9.46488 25.4774C4.49738 23.7837 0.916138 18.9787 0.916138 13.3162C0.916138 6.23741 6.51364 0.5 13.4161 0.5Z" fill="#FFFAF6"/>
</g>
<defs>
<clipPath id="clip0_22_314">
<rect width="25" height="25" fill="white" transform="translate(0.916138 0.5)"/>
</clipPath>
</defs>
</svg>
