<svg width="26" height="26" viewBox="0 0 26 26" fill="none" xmlns="http://www.w3.org/2000/svg">
<g clip-path="url(#clip0_22_309)">
<path fill-rule="evenodd" clip-rule="evenodd" d="M8.25321 0.653412C6.21835 0.745224 4.45465 1.24272 3.0305 2.66086C1.60138 4.08645 1.11006 5.85713 1.01802 7.87082C0.960808 9.12767 0.626245 18.6229 1.59641 21.113C2.25065 22.7929 3.53919 24.0846 5.23448 24.7409C6.02554 25.0486 6.92856 25.2569 8.25321 25.3177C19.3292 25.819 23.435 25.5461 25.1664 21.113C25.4736 20.3239 25.685 19.4217 25.7435 18.1003C26.2497 6.99589 25.6614 4.58893 23.731 2.66086C22.1999 1.13353 20.3989 0.093849 8.25321 0.653412ZM8.35517 23.0844C7.14247 23.0298 6.48451 22.8278 6.04545 22.6578C4.94096 22.2285 4.11135 21.4023 3.68473 20.3043C2.94591 18.4122 3.19095 9.42565 3.25687 7.97153C3.32155 6.54718 3.6101 5.24542 4.61509 4.24045C5.85889 2.99972 7.46586 2.39165 18.4076 2.88547C19.8354 2.94998 21.1402 3.23795 22.1477 4.24045C23.3915 5.48116 24.0084 7.1005 23.5059 18.0002C23.4512 19.2099 23.2484 19.8663 23.078 20.3043C21.9524 23.189 19.3628 23.5894 8.35517 23.0844ZM18.5282 6.36203C18.5282 7.18339 19.1961 7.85129 20.0208 7.85129C20.8454 7.85129 21.5146 7.18339 21.5146 6.36203C21.5146 5.54068 20.8454 4.87338 20.0208 4.87338C19.1961 4.87338 18.5282 5.54068 18.5282 6.36203ZM6.99447 12.985C6.99447 16.5036 9.85397 19.3564 13.3814 19.3564C16.9088 19.3564 19.7683 16.5036 19.7683 12.985C19.7683 9.46628 16.9088 6.61533 13.3814 6.61533C9.85397 6.61533 6.99447 9.46628 6.99447 12.985ZM9.2358 12.985C9.2358 10.702 11.0915 8.84982 13.3814 8.84982C15.6712 8.84982 17.527 10.702 17.527 12.985C17.527 15.2691 15.6712 17.1219 13.3814 17.1219C11.0915 17.1219 9.2358 15.2691 9.2358 12.985Z" fill="#FFFAF6"/>
</g>
<defs>
<clipPath id="clip0_22_309">
<rect width="25" height="25" fill="white" transform="translate(0.916138 0.5)"/>
</clipPath>
</defs>
</svg>
